<?xml version="1.0" encoding="UTF-8"?>
<svg xmlns="http://www.w3.org/2000/svg" xmlns:xlink="http://www.w3.org/1999/xlink" width="200" height="100" viewBox="0 0 200 100">
  <defs>
    <clipPath id="b">
      <rect width="200" height="100"></rect>
    </clipPath>
  </defs>
  <g id="a" clip-path="url(#b)">
    <path d="M33,45.521V62.042h7.625l.032-7.117.048-7.1,12.041-.048,12.025-.032v14.3h7.784V29H64.771V41.867l-12.025-.032L40.7,41.788l-.048-6.4L40.625,29H33Zm50.2,0V62.042h7.625V29H83.2Zm33.519,0V62.042h7.625V49.492h7.26l6.688,6.275,6.688,6.275,5.433-.032,5.433-.048-7.466-6.116c-4.114-3.368-7.45-6.164-7.4-6.243a14.415,14.415,0,0,1,2.478-.111c4.686,0,6.211-.381,7.625-1.89a4.145,4.145,0,0,0,1.064-1.875c.318-1.048.334-1.382.286-6.815l-.048-5.7-.413-.874a5.59,5.59,0,0,0-2.431-2.494c-1.636-.826-1.7-.842-17.84-.842h-14.98Zm27.434-10.389c.921.667,1.017,1.112.969,4.353-.048,3.272-.127,3.542-1.128,4.083-.461.27-1.271.286-10.072.334l-9.579.048V34.7l9.674.048C143.532,34.8,143.707,34.8,144.152,35.132Zm15.933,10.389V62.042l17.045-.032,17.029-.048V55.926l-13.217-.048-13.233-.032V47.586h15.25v-5.56H167.71V34.56h26.211V29H160.085ZM199.8,31.939v2.939l10.405.032,10.389.048-6.37,6.513c-3.511,3.574-8.705,8.864-11.517,11.739l-5.131,5.21v3.622H233v-6.2l-11.676-.032-11.676-.048L221.324,43.98,233,32.209V29H199.8ZM101.9,43.79a19.469,19.469,0,0,0-2.176,2.272,23.28,23.28,0,0,0,2.208,2.383l2.208,2.208,2.272-2.24,2.288-2.24-2.224-2.24c-1.223-1.223-2.256-2.224-2.319-2.224-.048,0-1.064.937-2.256,2.081ZM77.21,73.956A4.02,4.02,0,0,0,73.826,78.1a3.3,3.3,0,0,0,.445,1.906,4.265,4.265,0,0,0,2.383,2.049,5.277,5.277,0,0,0,4.353-.747c.286-.254.27-.27-.048-.62l-.334-.365-.635.413A3.73,3.73,0,0,1,77.1,81.1a3.236,3.236,0,0,1-1.318-5.21,3.434,3.434,0,0,1,4.1-.556c.763.4.794.413,1.1.127.3-.27.3-.318.064-.572A4.683,4.683,0,0,0,77.21,73.956Zm17.506.079c-.429.127-.842.222-.89.238a6.712,6.712,0,0,0-1.89,1.906,4.236,4.236,0,0,0,1.97,5.655,4.926,4.926,0,0,0,5.21-.826,4.716,4.716,0,0,0,.747-4.782A4.492,4.492,0,0,0,94.716,74.036Zm2.748,1.207a3.336,3.336,0,0,1,1.557,3.717,3.785,3.785,0,0,1-1.8,2.1A3.894,3.894,0,0,1,94.3,80.9a3.245,3.245,0,0,1,.349-5.814,4.3,4.3,0,0,1,2.812.159Zm42.78-1.191a4.148,4.148,0,0,0,1.255,8.165,3.99,3.99,0,0,0,3.908-2.3,4.938,4.938,0,0,0,.191-3.288c-.588-1.954-3.145-3.193-5.353-2.573Zm3.114,1.366a3,3,0,0,1,1.287,2.891,2.96,2.96,0,0,1-1.43,2.494,3.607,3.607,0,0,1-3.241.143,3.261,3.261,0,0,1-1.668-3.606,3.206,3.206,0,0,1,1.6-2.081,3.68,3.68,0,0,1,3.447.159Zm8.356-1.461a4.487,4.487,0,0,0-3.193,2.526,5.348,5.348,0,0,0-.238,1.6,4.079,4.079,0,0,0,2.573,3.86A5.933,5.933,0,0,0,155,81.724l.715-.381.048-1.636.048-1.62h-1.128V80.8l-.556.238a3.823,3.823,0,0,1-3.924-.826,2.8,2.8,0,0,1-.763-2.16,3.107,3.107,0,0,1,1.3-2.605,2.7,2.7,0,0,1,1.779-.508,2.784,2.784,0,0,1,1.906.365c.731.381.794.4,1.064.143.286-.254.286-.286.032-.588a4.739,4.739,0,0,0-3.813-.905ZM59.37,75.021c.254.6,1.048,2.43,1.8,4.1l1.319,3.018h1.207l1.16-2.621c.62-1.446,1.43-3.288,1.8-4.1l.651-1.461H66.122l-1.43,3.272A27.783,27.783,0,0,1,63.119,80.5a29.375,29.375,0,0,1-1.573-3.272l-1.43-3.272H58.909l.461,1.064Zm10.2,3.018.048,4.1.524.048.508.048V73.956H69.537Zm13.312-3.606v.477H85.74l.032,3.606.048,3.622.508.048.524.048.032-3.622.048-3.622,1.4-.048,1.382-.048v-.937H82.881Zm20.492,3.638v4.146h1.112V79.675h2.637l.763,1.1c.921,1.366,1.064,1.477,1.684,1.414l.492-.048-.89-1.255a10.475,10.475,0,0,1-.874-1.4c0-.064.207-.222.461-.365a2.907,2.907,0,0,0,.826-3.8c-.635-1.033-1.35-1.271-3.94-1.334l-2.272-.064v4.146Zm4.162-3a1.624,1.624,0,0,1,1.239,1.732c0,1.414-.778,1.922-2.939,1.922h-1.35V74.909h1.239a9.868,9.868,0,0,1,1.811.159Zm4.3-1c.048.079.763,1.255,1.589,2.621l1.525,2.494L115,80.66l.048,1.477.524.048.508.048v-2.8l1.668-2.7,1.652-2.7-.508-.048c-.588-.064-.556-.111-2.049,2.383a8.459,8.459,0,0,1-1.239,1.8c-.064-.048-.683-1-1.366-2.145l-1.255-2.065h-.6c-.334,0-.572.048-.54.111Zm16.632.365v.477h2.859l.032,3.606.048,3.622.508.048.524.048.032-3.622.048-3.622,1.4-.048,1.382-.048v-.937h-6.831Zm30.818,3.654v4.13h5.878v-.953h-4.782l.048-1.4.048-1.382,2.033-.048,2.017-.048v-.763l-2.017-.048-2.033-.048-.048-1.319-.048-1.3h4.623v-.953h-5.719v4.13Zm7.943-3.654v.461l1.4.048,1.382.048.048,3.606.032,3.622H171.2V74.909h2.859v-.953h-6.831Zm9.372,3.654v4.13h1.112V78.563h4.75l.048,1.779.048,1.8.524.048.508.048V73.956h-1.112v3.495h-4.766V73.956h-1.112Zm10.8,0v4.13l2.986-.032,2.971-.048.048-.445.048-.429H188.5l.048-1.4.048-1.382,2.033-.048,2.017-.048v-.763l-2.017-.048-2.033-.048-.048-1.319-.048-1.3h4.623v-.953h-5.719v4.13Zm9.087-.048.048,4.1h1.112L197.7,80.9l.048-1.223h2.605l.858,1.271c.794,1.16.921,1.271,1.4,1.271.286,0,.524-.048.524-.127a11.289,11.289,0,0,0-.874-1.366l-.858-1.239.508-.349a2.559,2.559,0,0,0,1.223-2.272,2.494,2.494,0,0,0-.953-2.16c-.7-.6-1.414-.747-3.7-.747h-2.017Zm4.273-2.971a1.505,1.505,0,0,1,1.207,1.477,1.766,1.766,0,0,1-.985,1.954,6.585,6.585,0,0,1-1.906.222h-1.35V74.909h1.239a9.671,9.671,0,0,1,1.8.159Zm-79.9,6.068a.794.794,0,0,0,1.191.921.841.841,0,0,0,.032-1.08A.816.816,0,0,0,120.863,81.137Zm85-.159a.737.737,0,0,0,.54,1.239c.461,0,.731-.365.667-.905-.032-.365-.127-.461-.524-.492a.954.954,0,0,0-.683.159Z" transform="translate(-33 -5.618)"></path>
  </g>
</svg>
