<svg id="Laag_1" data-name="Laag 1" xmlns="http://www.w3.org/2000/svg" xmlns:xlink="http://www.w3.org/1999/xlink" viewBox="0 0 200 100"><defs><style>.cls-1{fill:#fff;fill-rule:evenodd}.cls-2{mask:url(#mask)}.cls-3{fill:#232223}.cls-4{mask:url(#mask-3)}</style><mask id="mask" x="3.87" y="32.11" width="193.68" height="40.31" maskUnits="userSpaceOnUse"><g id="mask-2"><path id="path-1" class="cls-1" d="M3.87 32.11H197.55V72.42H3.87V32.11z"/></g></mask><mask id="mask-3" x="3.84" y="32.11" width="193.71" height="40.31" maskUnits="userSpaceOnUse"><g id="mask-6"><path id="path-5" class="cls-1" d="M3.87 32.11H197.55V72.42H3.87V32.11z"/></g></mask></defs><g id="Page-1"><g id="logo"><g id="Fill-1-Clipped"><g class="cls-2"><path id="Fill-1" class="cls-3" d="M196.65 68.2a2.21 2.21.0 1 0-2.2 2.43A2.22 2.22.0 0 0 196.65 68.2zm-5.22.0a3 3 0 1 1 3 3.18A3 3 0 0 1 191.43 68.2zm-1.91 3.08h.81V65.12h-.81zm-4.2-.76a2.33 2.33.0 0 0 0-4.65h-1v4.65zm-1.79-5.4h1.79a3.08 3.08.0 1 1 0 6.16h-1.79zM177.62 69V65.12h.81v3.74c0 1.18.65 1.77 1.57 1.77s1.58-.59 1.58-1.77V65.12h.81V69a2.39 2.39.0 1 1-4.77.0zm-1-3.09h-1.82v5.42H174V65.86h-1.83v-.74h4.46zm-9.42 4.19.69-.51a1.48 1.48.0 0 0 1.42 1.09c.71.0 1.17-.3 1.17-1s-.35-.88-1.38-1.24c-.78-.27-1.66-.81-1.66-1.76A1.72 1.72.0 0 1 169.33 65a1.89 1.89.0 0 1 1.89 1.12l-.64.46a1.3 1.3.0 0 0-1.26-.84c-.53.0-1.08.26-1.08.84s.48.86 1.5 1.23 1.58.84 1.58 1.74a1.86 1.86.0 0 1-2 1.82A2.14 2.14.0 0 1 167.23 70.05zm-3.15-3.67h-1.73v4.9H161v-4.9h-1.74V65.12h4.8zm-8.54.0V67.8h2.62v1h-2.62v2.46H154.2V65.12h4.22v1.26zm-3.66 1.82a1.77 1.77.0 0 0-1.78-1.92 1.85 1.85.0 0 0-1.37.54l.21.22a1.6 1.6.0 0 0-.61 1.32 1.7 1.7.0 0 0 1.77 1.76A1.77 1.77.0 0 0 151.88 68.2zm1.36.0a3.07 3.07.0 0 1-3.14 3.18 3 3 0 0 1-3.13-3 2.9 2.9.0 0 1 1-2.33l-.21-.21A3.31 3.31.0 0 1 150.1 65 3.08 3.08.0 0 1 153.24 68.2zM141.77 70l1.06-.79a1.31 1.31.0 0 0 1.2.89c.44.0.76-.23.76-.63s-.24-.6-1.12-.92S142 67.77 142 66.74A1.81 1.81.0 0 1 144 65a2.07 2.07.0 0 1 2 1.13l-1.07.74a1 1 0 0 0-1-.72c-.41.0-.7.22-.7.54s.33.58 1.25.91 1.61.84 1.61 1.79a2 2 0 0 1-2.13 2A2.21 2.21.0 0 1 141.77 70zm-2.27 1.25h1.34V65.12H139.5zm-3.08-1.18c.57.0.9-.27.9-.78s-.33-.77-.9-.77h-.74V70.1zm0-2.5a.65.65.0 1 0 0-1.3h-.7v1.3zm-2-2.48h2c1.19.0 2 .57 2 1.48a1.3 1.3.0 0 1-.81 1.32 1.53 1.53.0 0 1 1.1 1.53c0 1.06-.83 1.83-2.18 1.83h-2.13zm-6.16 3.69V65.12h1.34v3.59c0 .9.42 1.41 1.2 1.41s1.21-.51 1.21-1.41V65.12h1.34v3.69a2.55 2.55.0 1 1-5.09.0zm-4.67.42-1-2.69-.21-.74h0l-.21.74-1 2.69zm.23.65h-2.93l-.51 1.4h-.85l2.31-6.16h1l2.31 6.16h-.8z"/></g></g><g id="Fill-3-Clipped"><g class="cls-2"><path id="Fill-3" class="cls-3" d="M114.93 72.42H115.74V63.91H114.93V72.42z"/></g></g><g id="Fill-4-Clipped"><g class="cls-4"><path id="Fill-4" class="cls-3" d="M111.23 65.86h-1.82v5.42h-.81V65.86h-1.83v-.74h4.46zm-10.34-.74H102l2.94 5.21h0v-.73V65.12h.81v6.16h-1.11l-2.94-5.21h-.06l.06.73v4.48h-.81zm-1.11 5.4v.76h-4V65.12h3.91v.75h-3.1v2h2.81v.67H96.62v2zM88.2 65.12h1l2.18 5.41 2.18-5.41h1v6.16H93.8V67.34v-.9h0l-2 4.84H91l-2-4.84h0l.05.9v3.94H88.2zm-6 0h1.11l2.94 5.21h0v-.73V65.12H87v6.16H85.9L83 66.07h0v.73 4.48h-.81zm-2 6.16H81V65.12h-.81zm-2.52-2-1-2.69-.21-.74h0l-.21.74-1 2.69zm.23.65H74.92l-.51 1.4h-.85l2.31-6.16h1l2.31 6.16h-.8zm-4.2-4H71.83v5.42H71V65.86H69.18v-.74h4.47zM65 68.06h1.31c.71.0 1.22-.35 1.22-1.1s-.51-1.09-1.22-1.09H65zm2.52 3.22-1.38-2.56H65v2.56h-.81V65.12h2.13a1.81 1.81.0 0 1 2 1.8A1.72 1.72.0 0 1 67 68.64l1.43 2.64zm-4.43-.76v.76h-4V65.12H63v.75h-3.1v2h2.8v.67h-2.8v2zm-5-4.66H56.27v5.42h-.81V65.86H53.63v-.74H58.1zm-10.35-.74h1.11l2.94 5.21h.06l-.06-.73V65.12h.81v6.16H51.5l-2.94-5.21h-.05l.05.73v4.48h-.81zm-1.1 5.4v.76h-4V65.12h3.91v.75h-3.1v2h2.8v.67h-2.8v2zm-7.28.0v.76h-4V65.12h3.91v.75h-3.1v2H39v.67h-2.8v2zM29 65.12h.91l1.57 4.62.21.81h0l.22-.81 1.54-4.62h.94l-2.19 6.16H31.19zm-1.76 6.16h.81V65.12h-.81zm-5.13-1.23.68-.51a1.49 1.49.0 0 0 1.43 1.09c.7.0 1.17-.3 1.17-1S25 68.74 24 68.38c-.78-.27-1.67-.81-1.67-1.76A1.73 1.73.0 0 1 24.21 65a1.87 1.87.0 0 1 1.88 1.12l-.64.46a1.29 1.29.0 0 0-1.26-.84c-.52.0-1.07.26-1.07.84s.47.86 1.5 1.23 1.58.84 1.58 1.74a1.86 1.86.0 0 1-2 1.82A2.14 2.14.0 0 1 22.11 70.05zm-4.8.0.69-.51a1.48 1.48.0 0 0 1.42 1.09c.71.0 1.17-.3 1.17-1s-.35-.88-1.38-1.24c-.78-.27-1.66-.81-1.66-1.76A1.72 1.72.0 0 1 19.41 65a1.89 1.89.0 0 1 1.89 1.12l-.64.46a1.3 1.3.0 0 0-1.26-.84c-.53.0-1.08.26-1.08.84s.48.86 1.5 1.23 1.58.84 1.58 1.74a1.86 1.86.0 0 1-2 1.82A2.14 2.14.0 0 1 17.31 70.05zm-2-.82-1-2.69-.21-.74H14l-.21.74-1 2.69zm.23.65H12.58l-.51 1.4h-.85l2.31-6.16h1l2.32 6.16H16zM3.84 65.12h1l2.18 5.41 2.18-5.41h1v6.16H9.44V67.34l.06-.9H9.44l-2 4.84H6.64l-2-4.84H4.6l.05.9v3.94H3.84z"/></g></g><g id="Fill-5-Clipped"><g class="cls-4"><path id="Fill-5" class="cls-3" d="M161 48.23l-5.29 5-5.3-5V32.11h-8.07V50.47l9.12 8.46H160l9.13-8.46V32.11H161zM50.22 32.11l-9.13 8.46V58.93h8.08V42.8l5.29-4.95 5.3 4.95V58.93h8.08V40.57l-9.13-8.46zm72.3 10.25H108.63V39.53H125.9V32.16H104.46l-3.76 3.52V45l3.92 3.72h15.06v2.83h-19v7.37h23.15l3.76-3.53V46.07l-3.92-3.71zm-29.73.0H78.9V39.53H96.17V32.16H74.73L71 35.68V45l3.93 3.72H90v2.83H71v7.37H94.11l3.77-3.53V46.07L94 42.36zM7.57 32.16l-3.72 4V58.93h8.07V40.23h5.82v12h6.78v-12h5.83v18.7h8.07V36.14l-3.72-4zm190 7.41V32.16H176.13l-3.93 3.7v19.4l3.93 3.67h21.42V51.51H180.28V48.44H191V42.35H180.28V39.57zM131 58.93h8.07V32.16H131z"/></g></g></g></g></svg>