<svg id="Laag_1" data-name="Laag 1" xmlns="http://www.w3.org/2000/svg" viewBox="0 0 200 100"><defs><style>.cls-1{fill:#232223}</style></defs><path class="cls-1" d="M43.51 34a39.89 39.89.0 0 0-10-3.16 28.71 28.71.0 0 0-1.29 2.68 36.5 36.5.0 0 0-11.14.0c-.35-.84-.87-1.89-1.3-2.68A39.46 39.46.0 0 0 9.67 34 42.13 42.13.0 0 0 2.44 62.19a40.4 40.4.0 0 0 12.33 6.32 30.92 30.92.0 0 0 2.64-4.35 25.41 25.41.0 0 1-4.16-2c.35-.25.69-.52 1-.8a28.41 28.41.0 0 0 24.65.0c.34.28.68.55 1 .8a25.41 25.41.0 0 1-4.16 2 30 30 0 0 0 2.64 4.35 40.18 40.18.0 0 0 12.33-6.32A42.17 42.17.0 0 0 43.51 34zm-25 22.56c-2.4.0-4.38-2.25-4.38-5s1.93-5 4.38-5a4.66 4.66.0 0 1 4.38 5C22.89 54.26 21 56.51 18.5 56.51zm16.19.0c-2.41.0-4.38-2.25-4.38-5s1.93-5 4.38-5a4.67 4.67.0 0 1 4.38 5C39.07 54.26 37.14 56.51 34.69 56.51z"/><path class="cls-1" d="M67.71 40.42H78.17a15.33 15.33.0 0 1 6.4 1.2A8.58 8.58.0 0 1 88.49 45a9.36 9.36.0 0 1 1.3 4.92 8.9 8.9.0 0 1-5.49 8.4 16.28 16.28.0 0 1-6.88 1.29H67.71zm9.6 14.3a5.5 5.5.0 0 0 3.92-1.3 4.68 4.68.0 0 0 1.37-3.55 4.57 4.57.0 0 0-1.22-3.33 5 5 0 0 0-3.69-1.25H74.42v9.43z"/><path class="cls-1" d="M105.45 59.57a14.33 14.33.0 0 1-3.91-1.67V53.35a10.75 10.75.0 0 0 3.53 1.71 14.6 14.6.0 0 0 4.28.67 3.15 3.15.0 0 0 1.46-.26c.33-.17.49-.38.49-.61a.93.93.0 0 0-.27-.69 2.29 2.29.0 0 0-1-.47L106.77 53a8.18 8.18.0 0 1-3.93-1.82 4.43 4.43.0 0 1-.14-5.82 6.42 6.42.0 0 1 2.89-1.82 13.59 13.59.0 0 1 4.4-.65 16.17 16.17.0 0 1 4.13.5 11.51 11.51.0 0 1 3.12 1.26v4.3a11.39 11.39.0 0 0-2.92-1.22 12.83 12.83.0 0 0-3.39-.45c-1.69.0-2.52.29-2.52.88a.66.66.0 0 0 .39.61 6.25 6.25.0 0 0 1.43.43l2.68.49a7.79 7.79.0 0 1 3.92 1.63 4.39 4.39.0 0 1 1.29 3.44 4.58 4.58.0 0 1-2.13 4 10.62 10.62.0 0 1-6.06 1.47A18.1 18.1.0 0 1 105.45 59.57z"/><path class="cls-1" d="M124.45 59A8 8 0 0 1 121 55.87a8.56 8.56.0 0 1-1.17-4.44A7.93 7.93.0 0 1 124.56 44a12.85 12.85.0 0 1 5.58-1.11 12 12 0 0 1 6.68 1.72v5a8.12 8.12.0 0 0-2.19-1.07 8.58 8.58.0 0 0-2.67-.41 7 7 0 0 0-3.9.93 2.81 2.81.0 0 0-1.41 2.44A2.87 2.87.0 0 0 128 53.92a7 7 0 0 0 4 .94 9.17 9.17.0 0 0 2.64-.39 9.49 9.49.0 0 0 2.24-1v4.85A12.75 12.75.0 0 1 130 60.15 12.47 12.47.0 0 1 124.45 59z"/><path class="cls-1" d="M143.51 59A8.26 8.26.0 0 1 140 55.84a8.42 8.42.0 0 1-1.22-4.46A8 8 0 0 1 140 47a8.17 8.17.0 0 1 3.53-3 14.3 14.3.0 0 1 11 0 7.85 7.85.0 0 1 4.72 7.42A8.44 8.44.0 0 1 158 55.84 8.3 8.3.0 0 1 154.48 59a13.66 13.66.0 0 1-11 0zm8.15-4.86a3.6 3.6.0 0 0 1-2.64 3.5 3.5.0 0 0-1-2.62 4.19 4.19.0 0 0-5.36.0 3.5 3.5.0 0 0-1 2.62 3.78 3.78.0 0 0 6.34 2.64z"/><path class="cls-1" d="M175.34 43.87v5.92a4.67 4.67.0 0 0-2.66-.69 4.12 4.12.0 0 0-3.3 1.33 6.16 6.16.0 0 0-1.15 4.12V59.6h-6.57v-16h6.43v5.09a8.54 8.54.0 0 1 1.74-4.12 3.92 3.92.0 0 1 3.07-1.33A4.41 4.41.0 0 1 175.34 43.87z"/><path class="cls-1" d="M197.17 39.87V59.6H190.6V56a6.36 6.36.0 0 1-2.53 3.08 7.88 7.88.0 0 1-4.2 1A6.83 6.83.0 0 1 180 59a7.33 7.33.0 0 1-2.57-3 10.34 10.34.0 0 1-.9-4.37 9.8 9.8.0 0 1 1-4.52 7.39 7.39.0 0 1 6.83-4.25A6.15 6.15.0 0 1 190.6 47V39.87zM189.62 54a3.48 3.48.0 0 0 1-2.59 3.34 3.34.0 0 0-1-2.49 4.15 4.15.0 0 0-5.33.0 3.39 3.39.0 0 0-1 2.53 3.45 3.45.0 0 0 1 2.55 4 4 0 0 0 5.3.0z"/><path class="cls-1" d="M95.33 45.27a3 3 0 1 0-3.28-3A3.15 3.15.0 0 0 95.33 45.27z"/><path class="cls-1" d="M92.05 47.34a8.2 8.2.0 0 0 6.55.0V59.68H92.05z"/></svg>