<svg id="Laag_1" xmlns="http://www.w3.org/2000/svg" xmlns:xlink="http://www.w3.org/1999/xlink" viewBox="0 0 200 100" style="enable-background:new 0 0 200 100"><style>.st0{fill:#232223}.st1{fill-rule:evenodd;clip-rule:evenodd;fill:#232223}</style><g><path class="st0" d="M138.2 62.8c-.2-.8-3.3.0-5.8.7.2-18 0-36-1-54.1.0.0-1.8-.8-6.7-1.8-4.9-.9-12.9-2-25.2-2.1-12.3.0-20.3 1.1-25.2 2.1s-6.7 1.8-6.7 1.8c-.9 18.2-1.1 36.4-.9 54.7-2.9.7-5.4 2.1-5.8 2.8-.2.6.4 15.4.7 16.1.2.9 1.7 1.8 3.3 2.6.8.3 1.7.7 2.6 1 .1 2 .2 4 .3 6.1.0.0 1.8.8 6.7 1.8 4.9.9 12.9 2 25.2 2.1 12.3.0 20.3-1.1 25.2-2.1 4.9-1 6.7-1.8 6.7-1.8l.3-6c2.7.6 5.2.9 5.7.0.1-.4.6-6.1.7-11.8C138.3 69 138.3 63.4 138.2 62.8zM128.9 90.1c-.1.1-2.6 1-7.4 1.9h0c-4.9.9-12.2 1.9-21.9 1.9-9.8.0-17-1-21.9-1.9-4.9-.9-7.3-1.8-7.3-1.8l-.3-9c1.6-.4 2.6-1.6 2.8-1 .2.6.0 1.3.3 1.9.4.4 2.8 1.9 6.6 2.8 3.8.9 6.2.9 6.6.4.4-.4.0-1.7.2-2.2.2-.4 1.1.9 3.7 1.4 2.6.6 6 .8 6.4.2.4-.4.1-1.2.3-1.7.1-.4 1.7.8 4.3 1.4 2.8.8 6.3.8 6.7.3.4-.4.1-1.3.3-1.7.2-.4 1.7.9 4.3 1.7 2.8.8 6.4 1.3 6.9.9.4-.4.2-1.1.3-1.4.1-.4.8.2 2.2.8 1.6.6 3.3 1 3.7.6s.1-.8.3-1.3c.1-.4.9.6 3.1 1.3C129.1 87.1 129.1 88.7 128.9 90.1zM76.9 9.9v0c2.1 2 4.1 3.9 5.8 5.8.3 5.1-.1 14-4.7 16-5 2.1-7.2-2.3-8.4-4.1.1-5.4.3-10.7.6-16C70.3 11.6 72.5 10.8 76.9 9.9zM99.6 7.9c3.3.0 6.3.1 9 .3.2 3.8-2.7 5.2-4.8 5.6-3.6.6-9.5-3.1-11.8-5.7C94.3 8 96.8 7.9 99.6 7.9zm14.5 70.3c.1-1.9.1-3.6.0-3.9-.1-.3-1.9-1.8-2-1.6-.1.2-.1 3-.1 5.4.0 2.1.0 3.9-.1 4-.2.0-1-.1-2-.7-1-.4-1.4-1.2-1.6-1.7.0-.2.0-.8-.1-1.6.0-2.7.0-7.7.2-8.3.3-.8 3-1.4 3.2-1.3.2.0 2.3 1.9 2.6 1.8.3-.1.0-1.9.2-2.3.3-.4 3.7-1.1 3.8-.8.0.1-.2 6.2-.4 10.8-.1 2.8-.2 5.1-.3 5.2-.1.3-.8.2-1.9.0-1.2-.2-1.6-.6-1.7-.8C113.9 82.4 114 80.2 114.1 78.2zM69.6 32.9c2.4.0 5.3 1.4 5.2 3.4-.1 2-2.7 4.2-5.3 5.2C69.5 38.7 69.5 35.8 69.6 32.9zM69.4 46.3c2.2-3.4 5.3-7.3 8.5-6.7 3.4.6 5.4 3.9 5.8 8.2-4.8 1.8-10.5 2.1-14.4 1.1C69.4 48 69.4 47.1 69.4 46.3zM93 32.4c-2.3 1.9-6.6 2.4-9 .2-2.4-2.2.7-9.9 2.7-12.4C89.9 24.4 92.2 28.5 93 32.4zM110.6 22.7c2.1-3.1 10.8-2.1 14.3-.7-1.5 1.8-3.3 3.3-5.3 4.6-2.5 1.6-5.4 2.7-8.2 3.3C110.3 28 108.9 25.2 110.6 22.7zM119.4 60c-1.8.5-5 .9-5.9.3-1.1-.6-.8-2-.1-3.1C115.6 57.4 117.5 58.3 119.4 60zM101.7 65.6c-.1-1.9.5-3.6 1.5-4.9 1.9.1 5.1.8 5.1 1.9-.1 1-1.9 2.2-3.9 2.5C103.4 65.2 102.5 65.4 101.7 65.6zM85.6 65c-.1-.2-.5-.3-1.1-.3-.8-1.9.2-4.3 3.5-3.5 3 .8 4.5 1.7 6 2.7-.4.5-.8.9-1.2 1.3-.9.1-1.9.3-2.7.4-2.2.4-3.9 1.8-4.1 1.3C85.7 66.5 86.2 65.6 85.6 65zM93 51.9c5.2 1.1 5.2 5.4 2.9 9.4-3.8-.1-8.1-2-8.2-3.7C87.6 55.9 90.5 53.4 93 51.9zM99.7 41.6c2.4-2 6.4-1.3 8.9 1.6 2.4 2.9 2.3 7-.2 9-2.6 2.1-6.6 1.4-8.9-1.6C97.1 47.7 97.3 43.6 99.7 41.6zM111.3 57.1c-.1 1.1-.1 2.3-1.4 2.8-1.2.5-3-.3-4.1-1.4 1.2-.7 2.7-1.1 4.3-1.3C110.5 57.2 110.9 57.2 111.3 57.1zM108.3 65.5c.5-1 1.4-1.5 2.3-1.5 1.1.0 1.9.6 2.2 1.5-.1.0-.3.1-.4.1-2.7.8-3.8 1.9-4 1.6C108.1 66.8 108.4 66 108.3 65.5zM108.5 30.3c-2.1.2-4 0-5.7-.5-2.4-.7-4.5-1.9-6.2-3.5 1.9-2.3 4.5-3.5 7.7-2.8C108.2 24.3 108.7 27.6 108.5 30.3zM94.5 24.1C91.7 20.6 90 16 89.1 11c3.4.7 9.6 2.6 11.2 6.3C101.6 21.4 97.7 23 94.5 24.1zM83.4 37.3c1.4-1.8 5.8-1.3 9.8-.2-.1.7-.2 1.5-.4 2.2-.8 3.2-3.2 5.6-6.2 7.2C84.6 44.1 82.1 39 83.4 37.3zM89.4 51.6c-1.2 2.4-3.4 3.9-4.2 4.3-1.7.8-3.9.4-4.4-3.1C83.5 52 86.3 51.5 89.4 51.6zM86.6 78.3c0 0 0 0 0 0 0 0 .1.0.1.0.4.1 1.3.7 2.3 1.2 1.2.4 2.7.8 2.9.7.2-.1.2-1.3.0-1.6-.1-.1-.3-.2-.7-.3-.6-.2-1.6-.4-2.4-.8-1.3-.7-2.3-1.4-2.6-1.8-.2-.3-.3-5.6-.1-5.9h0c.2-.3 3.2-1.6 3.4-1.4.2.2.1 6.6.2 6.9.1.2 1.7.9 1.9.6.1-.3-.2-7.6.0-7.9.2-.3 3-.7 3.2-.3.1.2.1 6.3.1 10.8.0 2.5-.1 4.4-.2 4.5-.2.3-2.8.3-4.8-.3-1.9-.7-3.3-1.6-3.4-1.9C86.5 80.3 86.4 78.4 86.6 78.3zM97.2 69.6c.3-.4 1.9-1.1 3.9-1.7 1.8-.4 4-.5 4.7-.4.1.0.1.0.2.1.0.0.0.0.0.1.3.6.4 6.4.3 10.7.0 2.4-.2 4.4-.4 4.6-.4.4-2.9.0-4.9-.6-2-.4-3.9-1.6-4.1-1.9-.1-.1-.1-1-.1-2.1C96.8 75.3 97 69.9 97.2 69.6zM114.8 64.9c-1.1-.7-1.7-1.4-1.2-2.2.6-1 3.5-1.3 7.7-.7.6.7 1.2 1.6 1.8 2.5-.1.0-.2.1-.3.1-1.4.6-2.2 1.6-2.3 1.2-.3-.2.0-1.1-.3-1.6h0C119.8 64 117.2 64.4 114.8 64.9zM119.1 51.8c-1.3-2.3-2.1-4.9-2.2-7.6 1.6-.1 4.4-.2 5.2 1.4C122.8 47.3 122 50.5 119.1 51.8zM116.9 41.8c.2-3.8 1-6.7 3.2-9.3 1.9 2.9 3.1 7.5 2.4 8.9C121.7 42.9 119.3 42.9 116.9 41.8zM123.6 29.5c1.6-1 3.5-2 5.8-3 .1 3.6.2 7.1.2 10.7-.6 1.5-1.5 3.2-3.4 3.3C124.3 40.7 122.1 34.4 123.6 29.5zM129.7 40.6c0 2.6.1 5.1.1 7.7-1.3-.6-2.6-1.9-2.6-3.6C127.2 42.9 127.9 41.6 129.7 40.6zM127.1 18.8c-7.5 1.8-14.3-1.1-16.3-3.2-1.8-1.9-.1-5.3 1.6-7.1 3.6.4 6.7.8 9.1 1.3 4.7.9 7.2 1.7 7.3 1.8C128.8 14.3 128.1 16.6 127.1 18.8zM69.3 58.4c2.2-1.6 5-3.3 8.4-4.6 1.8.9 3.3 3 2.8 4.3-1.2 3.2-8.1 3.6-11.1 3.8C69.4 60.7 69.4 59.5 69.3 58.4zM79.7 61.8c1.6.0 2.7.9 2.2 3-.9.1-1.8.2-2.7.4-2.6.6-4.1 1.6-4.4 1.2-.1-.6.3-2.2-.2-2.7h0c-.1-.1-.4-.2-.7-.2C75.4 62.6 77.6 61.8 79.7 61.8zM77.6 79.3c1.4.8 2.7 1.2 2.9 1 .2-.1.2-1.2.0-1.6-.1-.2-.6-.2-1.7-.6-.4-.2-.9-.4-1.5-.7-2-1.1-2.3-1.4-2.6-1.8-.3-.3-.2-5.8.1-6.2.3-.4 1.8-1.2 3.9-1.7 1-.2 2.2-.4 3.2-.4.5.0 1 0 1.4.0.4.0.6.1.7.2.3.2.3 8 0 8.1-.3.1-1.3-.3-2-.6-.7-.3-1.1-.8-1.3-1-.2-.2.0-3.2-.1-3.4-.1-.2-1.8.2-2 .6-.2.4-.2 3-.1 3.3.1.2.8.7 2.1 1.4 1.3.8 3.1 1 3.3 1.2.1.1.1.5.1 1.1.0 1.7-.2 4.9-.4 5.1-.2.2-2.8.1-5.4-.9-2.7-1-3.3-2-3.4-2.2-.2-.3-.3-1.6-.1-2.2.0-.1.1-.2.1-.2.1-.1.4.0.7.3C76.1 78.3 76.8 78.9 77.6 79.3zM123.7 83.3c-.1.2-1.1.0-2-.3-1-.3-1.6-.8-1.7-1.3-.1-.3-.1-1.7-.1-3.5.0-3.8.2-9.3.4-9.7v0c.2-.4.9-.9 1.6-1 .8-.3 2.1-.7 2.2-.3.1.3.0 6.3-.1 10.9C123.9 80.8 123.8 83.1 123.7 83.3zM121.3 54.9c.7-2.4 2.1-7.1 4.5-6.8 1.8.3 3 1.8 3.9 3.4.0 2.8.0 5.6.0 8.4C126.4 59.1 123.5 57.3 121.3 54.9zM67.4 79.1c-.3.2.2 4.3-.1 4.7-.3.3-3.3-1.3-3.6-1.8-.3-.4-.8-13.3-.4-13.8.3-.3 1.9-1.4 3.9-2.1.2-.1.5-.1.7-.2.4-.1.9-.2 1.3-.2.8-.1 1.6-.2 2.2-.2.7.0 1.2.1 1.3.2.3.4.2 10.7.1 11-.1.3-.4.6-1.2 1-.4.2-.9.4-1.5.6-.7.3-1.3.4-1.7.5-.1.0-.2.0-.2.0C67.8 79 67.5 79 67.4 79.1zM135.5 76.5c-.2.4-1.9 1.2-1.9 1.7-.1.6 1.4 1 1.6 1.4.2.4.0 4.4-.2 4.7-.3.3-2.9-.2-3.1-.7-.2-.4.0-2.6-.1-2.9-.1-.2-.4-.7-.7-.8-.1.0-.1.0-.2.0-.1.0-.2.0-.3.1-.3.1-.7.5-.8.8-.2.4.0 2.2-.3 2.3-.9.1-3.2-1.1-3.4-1.4-.2-.4-.2-2.2.0-2.6.2-.3 1.6-.8 1.7-1.2.0.0.0.0.0.0.0-.4-1.4-1.2-1.6-1.7-.2-.6.0-7.7.2-8h0c.3-.3 3.3-1.7 3.7-1.2.2.3-.1 7.9.0 8.2.1.3.7 1 1 1 0 0 .1.0.2.0.4-.1.9-.6 1-1 .2-.6.1-8.4.4-8.9.2-.3 3.2-1.1 3.4-.9C136.2 65.6 135.7 76 135.5 76.5z"/><path class="st0" d="M101.7 49.9c1.3 1 3 1 3.9-.1.8-1.1.4-2.8-.8-3.8-1.3-1-3-1-3.9.1C100.1 47.1 100.4 48.9 101.7 49.9z"/><path class="st0" d="M69.2 75.8c.1-.3.1-7-.1-7.2-.2-.1-.6.1-1.1.3-.5.2-.9.4-1 .6-.2.3.0 6.6.3 6.9.1.1.5.1.8.0C68.6 76.3 69 76 69.2 75.8z"/><path class="st0" d="M100.5 79.5c.2.3 1.7.8 1.9.7.1-.1.1-.8.2-1.8.1-2.8.2-7.9-.1-8.1-.2-.2-1.7.2-1.9.4-.2.2-.3 5.3-.2 7.7C100.4 79 100.5 79.4 100.5 79.5z"/></g></svg>