<svg id="Laag_1" xmlns="http://www.w3.org/2000/svg" xmlns:xlink="http://www.w3.org/1999/xlink" viewBox="0 0 200 100" style="enable-background:new 0 0 200 100"><style>.st0{fill:#232223}.st1{fill-rule:evenodd;clip-rule:evenodd;fill:#232223}.st2{filter:url(#Adobe_OpacityMaskFilter)}.st3{fill-rule:evenodd;clip-rule:evenodd;fill:#fff}.st4{mask:url(#mask-2_2_);fill-rule:evenodd;clip-rule:evenodd;fill:#232223}</style><g><path class="st0" d="M90 11.7c1.2-.2 1.5.5 2.3.8.4 1.8-.6 2.2-1.2 3.1C90.2 14.1 89.8 12.9 90 11.7"/><path class="st0" d="M86.2 32c.7.0 1 .3 1.2.8 5-.4 1.3 1-.8 1.5.3-.3.4-.9.4-1.5C86.3 32.9 86.2 32.5 86.2 32"/><path class="st0" d="M82.7 46.6c-.4 1.7-2.5 1.6-3.8 2.3C79.1 47 81.4 47.2 82.7 46.6"/><path class="st0" d="M111.5 54.3v3.4c-1.8.1-1.7-1.6-3.1-1.9.8-.6 2.2-.6 2.7-1.5H111.5v0z"/><path class="st0" d="M88.9 59.3H85c-1.1-2.8 2.9-1.7 3.8-.4V59.3z"/><path class="st0" d="M103.8 21.7c1-.2 1.8-.8 2.3-1.5-.7.0-1.2-.1-1.5-.4C104.9 20.9 103.6 20.5 103.8 21.7M101.2 21.7c-.7-1.5 1.5-2 .4-2.7-.1.5-.4.2-.8.0.3 1.6-1.2 1.9-.4 3.4 2-.9 4.5-3.4 3.8-5.8C103 18.5 103.1 20.1 101.2 21.7M92.7 15.9c.3 1.5-.2 2 .4 2.7.0-.9 1.3-.1 1.2.4.0.8-1 .5-.8 1.5 1.8-.4.5 2.3 1.9 2.3.1-1.4-.4-2.1-.8-3.1 1.5.1.1-.3.4-1.2 1.2.9 3.7.3 3.8-1.2-1.5-.6-2.7-1.6-4.2-2.3C94.3 15.7 93.7 16 92.7 15.9M111.5 32.8v1.5c-2.7.5-4.1 2.3-7.3 2.3-.2-.6.4-2-.4-1.9-1.5.1-6.7.3-7.3-.8-.1-1.1.9-1.2.8-2.3-.7-1.2-1.8-4.1-3.4-3.1 2 .2 2.5 3.3 1.2 4.6-.8-.6-1.9-.9-2.3-1.9 2.8-3-2.3-4.2-3.1-6.1 1.2-.1 1.6.7 3.1.4-.1-2.3-2.8-2.4-2.3-4.2-1.1.4-3 .8-3.1-.8 1.6.3 3.3-1.7 2.7-2.7 3.3-.1 1.7-4.5 4.2-5.4 1.8-.6 2.6 1.3 4.2.8-.8-1.1-.3-1.9-.8-3.1 1.9 1.2 2.3-.5 3.4 1.5 1.2-1 .4-1.4.0-2.7-3-.7-6.8.7-8.8-1.5-.4 1-.3 2.5-1.9 2.3 1.3-3.3 3.4-6.6 6.5-7.3 12.1-2.5 17 14.5 8.1 20.7C104.1 29.4 109.2 29.8 111.5 32.8"/><path class="st0" d="M92.3 33.9c1.1-1.2 2 1 2.7 1.5-.8.7-1.2 1.9-1.5 3.1-1.2-1.1.7-2.3.8-3.4C93.7 34.6 93.3 34 92.3 33.9"/><path class="st0" d="M83.4 47.4c1.5.0 2.6 3.2 3.4 1C85.6 48.1 84 45.3 83.4 47.4M95.1 60.2h-4.9c-1.1-1.8-3.7-2.3-4.9-3.9-6-.1-7.8-3.3-10.3-5.9 1.9-.1 4.5.7 4.9-2-1.4-1.3-4.9 2.8-5.4-.5 2.7.1 4-2.2 6.4-1-.2-1.7.2-2.8.5-3.9-2.6-1-3.8 2.1-5.4.5 1.3-2.5 5.1-.7 5.9-2.9 1.7.9 3.3 1.9 4.9 2.9.0-1.9-4.1-2.1-2.9-3.4 6.5 2.4 6.4 11.2 14.3 12.3.2-.8-.7-1.3.0-1.5 1.7.8 3.8.4 5.9-.5.1-2.2-2.9.7-3.4-1.5.1-.9.3-1.6 1-2 2.7-.7 2.3 1.7 3.4 2.5 5-1.5 6.7-9.2 4.4-13.8 7.4 4.5-3.9 15.4 2.5 22.1-7.5.6-13.5-4.5-19.7-6.9.2 2.1-1.2 4.8-3.4 5.9C91.2 58.7 94.9 56.4 95.1 60.2"/><path class="st0" d="M76 24.9c-5-3.3-9.1 1.3-9.3 6.3-.2 3.2.4 5.7 3.2 7.3 2.3 1.4 4.9.9 6.4 3.1 1.1-.2 1.7-1.1 2.8-1.3 1.2-.3 2.8.5 3.5-.8.8-.2 1.7.0 2.3.4.1-1.9-1.2-3.1-1.9-4.8-.8-1.7-.9-2.7-1.1-4.6-.1-1.6-.2-3.2-1.6-4.3-1.6-1.2-3.9-.8-3.9 1.5-.2-.9-.5-2-.6-3"/></g><g><path class="st0" d="M34.7 91.3V67.2H49V72.3H41V76.6H48.4V81.4H41V91.3z"/><path class="st0" d="M56.6 83.3c-.1.0-.2.1-.3.1-.9.6-1.1.9-1.2 1.8-.1 1.8.9 2.7 2.1 2.3.8-.3 1.3-1.1 1.3-3v-2.1L56.6 83.3zM55.4 78.8h-5.5c0-.4.0-.8.0-1.1.4-2.7 2.4-4.6 5.9-4.9 6.2-.5 8.4 1.3 8.4 5.6v10.2.5.5c0 .7.2 1.2.4 1.8H59l-.1-.3-.1-.2-.1-.3v-.4l-.1-.5v-.3c-.6 1.2-1.7 2-3.4 2.2-3.7.5-5.8-1.4-5.8-5.4.0-2.9.8-4.2 3.4-5.2.3-.1.6-.2.9-.3l3.4-.9c1.2-.3 1.5-.8 1.5-1.7.0-1-.4-1.6-1.1-1.7-1.2-.3-1.9.3-2 1.6C55.4 78 55.4 78.8 55.4 78.8"/><path class="st0" d="M66.6 91.3V73.2h6v18.1C72.7 91.4 66.6 91.3 66.6 91.3M66.6 67.2h6v4.6h-6V67.2z"/><path class="st0" d="M75.1 91.3V73.2h5.8v2.5c.1-.1.2-.3.3-.5 1.1-1.8 2.3-2.5 4.2-2.5.3.0.6.0.8.0v5.7c-.3.0-.5-.1-.8-.1-3.1-.2-4.3.8-4.3 3.1v9.9L75.1 91.3v0z"/><path class="st0" d="M87.1 91.3V67.2H101.4V72.3H93.5V76.6H100.9V81.4H93.5V91.3z"/><path class="st0" d="M102.6 91.3V73.2h6v18.1C108.7 91.4 102.6 91.3 102.6 91.3M102.6 67.2h6v4.6h-6V67.2z"/><path class="st0" d="M116.8 83.3c.1 2.1.4 2.6 1 3 .7.4 1.5.2 2-.6.3-.6.4-1.3.5-3.4.0-3.2-.2-4-.8-4.6-.6-.6-1.4-.4-2 .3C116.5 78.8 116.8 82.9 116.8 83.3M120.1 75.6v-2.3h5.8v17.8c0 4-1.7 5.8-6 6.4-.8.1-1.7.1-2.6.1-4-.3-5.5-1.4-6-4-.1-.4-.1-.7.0-1.1h5.4v.2c.1.8.5 1.2 1.4 1.3 1.3.2 2-.6 2-2.2v-3.3c-.1.2-.2.3-.3.5-1 1.5-2.2 2.1-4 2-1.7-.1-2.9-.8-3.9-2.4-.7-1.2-1.3-3.3-1.3-6.6.0-6 1.7-8.6 4.5-9 2.4-.4 3.6.2 4.7 2C119.9 75.2 120.1 75.5 120.1 75.6"/><path class="st0" d="M128.3 91.3V67.2h6v7.7c.1-.2.2-.4.4-.5.9-1.1 1.9-1.6 3.4-1.7.5-.1 1.1.0 1.6.1 2.6.5 3.5 1.8 3.5 5.1v13.5h-6V79.1c0-1.5-.6-2-1.7-1.9-.7.1-1.1.6-1.2 1.6.0.1.0.2.0.4v12.1H128.3z"/><path class="st0" d="M144.2 77.3v-4.1h2.2V68h6v5.3h2.3v4.1h-2.3V86c0 .9.4 1.4 1.2 1.4h1.1v3.9c-.8.1-1.6.2-2.4.2-1.1.1-1.7.1-2.3.0-2.8-.3-3.4-.9-3.6-3.7.0-.3.0-.6.0-.8v-9.7H144.2z"/><path class="st0" d="M164.8 72.9l-.2-2.9c0-.4.0-.9.0-1.4h-.1c-.1.4-.3 1-.4 1.5l-.9 2.7h-1l-.9-2.8c-.1-.4-.2-1-.3-1.4h-.1c0 .5.0.9.0 1.4l-.2 2.9h-.9l.4-4.9h1.5l.9 2.4c.1.4.2.7.3 1.3h0c.1-.4.2-.9.3-1.2l.9-2.5h1.4l.4 4.9H164.8v0zM159.5 67.9v.8h-1.6v4.1h-1v-4.1h-1.6v-.8H159.5z"/></g></svg>